<svg width="27" height="30" viewBox="0 0 27 30" fill="none" xmlns="http://www.w3.org/2000/svg">
<path d="M7.5 0C8.53711 0 9.375 0.837891 9.375 1.875V3.75H16.875V1.875C16.875 0.837891 17.7129 0 18.75 0C19.7871 0 20.625 0.837891 20.625 1.875V3.75H23.4375C24.9902 3.75 26.25 5.00977 26.25 6.5625V9.375H0V6.5625C0 5.00977 1.25977 3.75 2.8125 3.75H5.625V1.875C5.625 0.837891 6.46289 0 7.5 0ZM0 11.25H26.25V27.1875C26.25 28.7402 24.9902 30 23.4375 30H2.8125C1.25977 30 0 28.7402 0 27.1875V11.25ZM3.75 15.9375V17.8125C3.75 18.3281 4.17187 18.75 4.6875 18.75H6.5625C7.07813 18.75 7.5 18.3281 7.5 17.8125V15.9375C7.5 15.4219 7.07813 15 6.5625 15H4.6875C4.17187 15 3.75 15.4219 3.75 15.9375ZM11.25 15.9375V17.8125C11.25 18.3281 11.6719 18.75 12.1875 18.75H14.0625C14.5781 18.75 15 18.3281 15 17.8125V15.9375C15 15.4219 14.5781 15 14.0625 15H12.1875C11.6719 15 11.25 15.4219 11.25 15.9375ZM19.6875 15C19.1719 15 18.75 15.4219 18.75 15.9375V17.8125C18.75 18.3281 19.1719 18.75 19.6875 18.75H21.5625C22.0781 18.75 22.5 18.3281 22.5 17.8125V15.9375C22.5 15.4219 22.0781 15 21.5625 15H19.6875ZM3.75 23.4375V25.3125C3.75 25.8281 4.17187 26.25 4.6875 26.25H6.5625C7.07813 26.25 7.5 25.8281 7.5 25.3125V23.4375C7.5 22.9219 7.07813 22.5 6.5625 22.5H4.6875C4.17187 22.5 3.75 22.9219 3.75 23.4375ZM12.1875 22.5C11.6719 22.5 11.25 22.9219 11.25 23.4375V25.3125C11.25 25.8281 11.6719 26.25 12.1875 26.25H14.0625C14.5781 26.25 15 25.8281 15 25.3125V23.4375C15 22.9219 14.5781 22.5 14.0625 22.5H12.1875ZM18.75 23.4375V25.3125C18.75 25.8281 19.1719 26.25 19.6875 26.25H21.5625C22.0781 26.25 22.5 25.8281 22.5 25.3125V23.4375C22.5 22.9219 22.0781 22.5 21.5625 22.5H19.6875C19.1719 22.5 18.75 22.9219 18.75 23.4375Z" fill="white"/>
</svg>
