<svg width="21" height="20" viewBox="0 0 21 20" fill="none" xmlns="http://www.w3.org/2000/svg">
<path d="M20.0379 0.43492C19.8323 0.27139 19.5966 0.149948 19.3441 0.0775271C19.0917 0.00510625 18.8274 -0.0168746 18.5664 0.0128398C18.3055 0.0425541 18.0529 0.123382 17.8232 0.250707C17.5935 0.378032 17.3911 0.549362 17.2275 0.754911L9.19976 10.8538L6.39343 7.32274C6.0633 6.90742 5.5817 6.64026 5.05459 6.58002C4.52748 6.51979 3.99802 6.67141 3.58271 7.00155C3.16739 7.33168 2.90022 7.81327 2.83999 8.34039C2.77975 8.8675 2.93138 9.39695 3.26151 9.81227L7.6334 15.3121C8.01259 15.7897 8.58937 16.0665 9.19896 16.0665C9.80854 16.0665 10.3845 15.7865 10.7645 15.3113L20.3595 3.24444C21.0474 2.38047 20.9034 1.1213 20.0379 0.43412V0.43492ZM15.9996 17.6001H2.39994V4.00043H12.6045L14.5124 1.60049H1.19997C0.535986 1.60049 0 2.13647 0 2.80046V18.8C0 19.4624 0.535986 20 1.19997 20H17.1995C17.5178 20 17.823 19.8736 18.048 19.6485C18.2731 19.4235 18.3995 19.1183 18.3995 18.8V8.28031L15.9996 11.2994V17.6001Z" fill="#fff"/>
</svg>
