<svg width="27" height="30" viewBox="0 0 27 30" fill="none" xmlns="http://www.w3.org/2000/svg">
<path fill-rule="evenodd" clip-rule="evenodd" d="M16.92 8.70283e-08C17.5496 0.00016329 18.1633 0.198428 18.674 0.566712C19.1847 0.934995 19.5665 1.45463 19.7655 2.052L20.58 4.5H25.5C25.8978 4.5 26.2794 4.65804 26.5607 4.93934C26.842 5.22064 27 5.60218 27 6C27 6.39782 26.842 6.77936 26.5607 7.06066C26.2794 7.34196 25.8978 7.5 25.5 7.5L25.4955 7.6065L24.195 25.821C24.1138 26.9559 23.6058 28.018 22.7731 28.7933C21.9403 29.5687 20.8448 29.9999 19.707 30H7.293C6.15519 29.9999 5.05966 29.5687 4.22695 28.7933C3.39424 28.018 2.88616 26.9559 2.805 25.821L1.5045 7.605C1.50179 7.57006 1.50029 7.53504 1.5 7.5C1.10218 7.5 0.720644 7.34196 0.43934 7.06066C0.158035 6.77936 0 6.39782 0 6C0 5.60218 0.158035 5.22064 0.43934 4.93934C0.720644 4.65804 1.10218 4.5 1.5 4.5H6.42L7.2345 2.052C7.43355 1.45438 7.81565 0.934578 8.32665 0.566273C8.83765 0.197967 9.45161 -0.000151592 10.0815 8.70283e-08H16.9185H16.92ZM9 12C8.6326 12 8.27799 12.1349 8.00344 12.3791C7.72889 12.6232 7.55349 12.9596 7.5105 13.3245L7.5 13.5V22.5C7.50042 22.8823 7.64682 23.25 7.90927 23.5281C8.17173 23.8061 8.53043 23.9734 8.91209 23.9958C9.29376 24.0182 9.66957 23.894 9.96275 23.6486C10.2559 23.4032 10.4443 23.0551 10.4895 22.6755L10.5 22.5V13.5C10.5 13.1022 10.342 12.7206 10.0607 12.4393C9.77936 12.158 9.39783 12 9 12ZM18 12C17.6022 12 17.2206 12.158 16.9393 12.4393C16.658 12.7206 16.5 13.1022 16.5 13.5V22.5C16.5 22.8978 16.658 23.2794 16.9393 23.5607C17.2206 23.842 17.6022 24 18 24C18.3978 24 18.7794 23.842 19.0607 23.5607C19.342 23.2794 19.5 22.8978 19.5 22.5V13.5C19.5 13.1022 19.342 12.7206 19.0607 12.4393C18.7794 12.158 18.3978 12 18 12ZM16.92 3H10.08L9.5805 4.5H17.4195L16.9185 3H16.92Z" fill="#303636"/>
</svg>
