<svg width="26" height="26" viewBox="0 0 26 26" fill="none" xmlns="http://www.w3.org/2000/svg">
<path fill-rule="evenodd" clip-rule="evenodd" d="M3 0C1.34315 0 0 1.34315 0 3V23C0 24.6569 1.34315 26 3 26H23C24.6569 26 26 24.6569 26 23V3C26 1.34315 24.6569 0 23 0H3ZM19.4142 9.41421C20.1953 8.63317 20.1953 7.36684 19.4142 6.58579C18.6332 5.80474 17.3668 5.80474 16.5858 6.58579L13.0025 10.1691L9.42247 6.58636C8.64173 5.80502 7.3754 5.80453 6.59405 6.58528C5.8127 7.36603 5.81221 8.63235 6.59296 9.4137L10.174 12.9975L6.58579 16.5858C5.80474 17.3668 5.80474 18.6332 6.58579 19.4142C7.36684 20.1953 8.63317 20.1953 9.41421 19.4142L13.0014 15.827L16.5852 19.4137C17.366 20.195 18.6323 20.1955 19.4137 19.4148C20.195 18.634 20.1955 17.3677 19.4148 16.5863L15.8298 12.9986L19.4142 9.41421Z" fill="#303636"/>
</svg>
