<svg width="34" height="30" viewBox="0 0 34 30" fill="none" xmlns="http://www.w3.org/2000/svg">
<path d="M23.5945 4.87009L28.8806 10.1563C29.1033 10.379 29.1033 10.7423 28.8806 10.965L16.0813 23.7644L10.6427 24.368C9.916 24.4501 9.30065 23.8347 9.38269 23.108L9.98633 17.6695L22.7857 4.87009C23.0084 4.64739 23.3718 4.64739 23.5945 4.87009ZM33.0885 3.52803L30.2286 0.668099C29.3378 -0.2227 27.8902 -0.2227 26.9936 0.668099L24.9189 2.74272C24.6962 2.96542 24.6962 3.32878 24.9189 3.55148L30.2051 8.83766C30.4278 9.06036 30.7912 9.06036 31.0139 8.83766L33.0885 6.76304C33.9793 5.86638 33.9793 4.41883 33.0885 3.52803V3.52803ZM22.5044 20.2833V26.2493H3.75073V7.4956H17.2182C17.4057 7.4956 17.5816 7.41942 17.7164 7.29049L20.0606 4.94628C20.506 4.50088 20.1895 3.74487 19.5624 3.74487H2.81305C1.26001 3.74487 0 5.00488 0 6.55792V27.187C0 28.74 1.26001 30 2.81305 30H23.4421C24.9951 30 26.2551 28.74 26.2551 27.187V17.9391C26.2551 17.312 25.4991 17.0014 25.0537 17.4409L22.7095 19.7851C22.5806 19.9199 22.5044 20.0957 22.5044 20.2833Z" fill="#303636"/>
</svg>
