<svg width="26" height="26" viewBox="0 0 26 26" fill="none" xmlns="http://www.w3.org/2000/svg">
<path fill-rule="evenodd" clip-rule="evenodd" d="M3 0C1.34315 0 0 1.34315 0 3V23C0 24.6569 1.34315 26 3 26H23C24.6569 26 26 24.6569 26 23V3C26 1.34315 24.6569 0 23 0H3ZM19.5465 10.2683C20.2469 9.41417 20.1223 8.15398 19.2683 7.45354C18.4142 6.75311 17.154 6.87766 16.4535 7.73174L12.1316 13.0017L9.43304 10.2299C8.66253 9.43842 7.39632 9.42145 6.60487 10.192C5.81342 10.9625 5.79645 12.2287 6.56696 13.0201L10.8262 17.3951C11.2234 17.8031 11.7755 18.0224 12.3443 17.9982C12.9132 17.974 13.4447 17.7085 13.8057 17.2683L19.5465 10.2683Z" fill="#303636"/>
</svg>
