<svg width="30" height="30" viewBox="0 0 30 30" fill="none" xmlns="http://www.w3.org/2000/svg">
<path fill-rule="evenodd" clip-rule="evenodd" d="M12.4025 1.62057C13.4884 -0.540192 16.5119 -0.540192 17.5978 1.62057L29.674 25.6562C30.672 27.6407 29.2599 30 27.0763 30H2.92397C0.740372 30 -0.671738 27.6407 0.326309 25.6562L12.4025 1.62057ZM17.0001 18C17.0001 19.1046 16.1056 20 15.0001 20C13.8947 20 13.0001 19.1046 13.0001 18V11C13.0001 9.89536 13.8947 8.99997 15.0001 8.99997C16.1056 8.99997 17.0001 9.89536 17.0001 11V18ZM15.0001 22C13.8947 22 13.0001 22.8954 13.0001 24C13.0001 25.1046 13.8947 26 15.0001 26C16.1056 26 17.0001 25.1046 17.0001 24C17.0001 22.8954 16.1056 22 15.0001 22Z" fill="#303636"/>
</svg>
