<svg width="30" height="30" viewBox="0 0 30 30" fill="none" xmlns="http://www.w3.org/2000/svg">
<path fill-rule="evenodd" clip-rule="evenodd" d="M0 4C0 1.79089 1.79102 0 4 0H26C28.209 0 30 1.79089 30 4V26C30 28.2091 28.209 30 26 30H4C1.79102 30 0 28.2091 0 26V4ZM13 15C13 13.8954 13.8945 13 15 13C16.1055 13 17 13.8954 17 15V22C17 23.1046 16.1055 24 15 24C13.8945 24 13 23.1046 13 22V15ZM15 11C16.1055 11 17 10.1046 17 9C17 7.89539 16.1055 7 15 7C13.8945 7 13 7.89539 13 9C13 10.1046 13.8945 11 15 11Z" fill="#303636"/>
</svg>
