<svg width="32" height="25" viewBox="0 0 32 25" fill="none" xmlns="http://www.w3.org/2000/svg">
<path d="M0 1C0 0.447715 0.447715 0 1 0H6C6.55228 0 7 0.447715 7 1V5.25C7 5.80228 6.55228 6.25 6 6.25H1C0.447715 6.25 0 5.80228 0 5.25V1Z" fill="white"/>
<path d="M0 10C0 9.44772 0.447715 9 1 9H6C6.55228 9 7 9.44772 7 10V14.25C7 14.8023 6.55228 15.25 6 15.25H1C0.447715 15.25 0 14.8023 0 14.25V10Z" fill="white"/>
<path d="M0 19C0 18.4477 0.447715 18 1 18H6C6.55228 18 7 18.4477 7 19V23.25C7 23.8023 6.55228 24.25 6 24.25H1C0.447715 24.25 0 23.8023 0 23.25V19Z" fill="white"/>
<path d="M9 1C9 0.447715 9.44772 0 10 0H31C31.5523 0 32 0.447715 32 1V5.25C32 5.80228 31.5523 6.25 31 6.25H10C9.44772 6.25 9 5.80228 9 5.25V1Z" fill="white"/>
<path d="M9 10C9 9.44772 9.44772 9 10 9H31C31.5523 9 32 9.44772 32 10V14.25C32 14.8023 31.5523 15.25 31 15.25H10C9.44772 15.25 9 14.8023 9 14.25V10Z" fill="white"/>
<path d="M9 19C9 18.4477 9.44772 18 10 18H31C31.5523 18 32 18.4477 32 19V23.25C32 23.8023 31.5523 24.25 31 24.25H10C9.44772 24.25 9 23.8023 9 23.25V19Z" fill="white"/>
</svg>
