<svg width="20" height="14" viewBox="0 0 20 14" fill="none" xmlns="http://www.w3.org/2000/svg">
<path d="M19.8947 12.25V1.75C19.8947 0.781667 19.1111 0 18.1404 0H1.75439C0.783626 0 0 0.781667 0 1.75V12.25C0 13.2183 0.783626 14 1.75439 14H18.1404C19.1111 14 19.8947 13.2183 19.8947 12.25ZM18.3626 1.62167C18.7485 2.00667 18.538 2.40333 18.3275 2.60167L13.5789 6.94167L18.1404 11.6783C18.2807 11.8417 18.3743 12.0983 18.2105 12.2733C18.0585 12.46 17.7076 12.4483 17.5556 12.3317L12.4444 7.98L9.94152 10.255L7.45029 7.98L2.33918 12.3317C2.18713 12.4483 1.83626 12.46 1.68421 12.2733C1.52047 12.0983 1.61404 11.8417 1.75439 11.6783L6.31579 6.94167L1.56725 2.60167C1.35672 2.40333 1.1462 2.00667 1.53216 1.62167C1.91813 1.23667 2.31579 1.42333 2.64327 1.70333L9.94152 7.58333L17.2515 1.70333C17.5789 1.42333 17.9766 1.23667 18.3626 1.62167V1.62167Z" fill="white"/>
</svg>
