<svg width="28" height="28" viewBox="0 0 28 28" fill="none" xmlns="http://www.w3.org/2000/svg">
<path d="M0 4.2C0 3.08609 0.442499 2.0178 1.23015 1.23015C2.0178 0.442499 3.08609 0 4.2 0H19.6C20.7139 0 21.7822 0.442499 22.5698 1.23015C23.3575 2.0178 23.8 3.08609 23.8 4.2V11.2H11.2C9.71479 11.2 8.29041 11.79 7.2402 12.8402C6.19 13.8904 5.6 15.3148 5.6 16.8V23.8C5.6 24.283 5.6616 24.752 5.7764 25.2H4.2C3.08609 25.2 2.0178 24.7575 1.23015 23.9698C0.442499 23.1822 0 22.1139 0 21V4.2ZM5.25 2.8C4.97152 2.8 4.70445 2.91062 4.50754 3.10754C4.31062 3.30445 4.2 3.57152 4.2 3.85C4.2 4.12848 4.31062 4.39555 4.50754 4.59246C4.70445 4.78938 4.97152 4.9 5.25 4.9H18.55C18.8285 4.9 19.0955 4.78938 19.2925 4.59246C19.4894 4.39555 19.6 4.12848 19.6 3.85C19.6 3.57152 19.4894 3.30445 19.2925 3.10754C19.0955 2.91062 18.8285 2.8 18.55 2.8H5.25ZM8.05 7C7.77152 7 7.50445 7.11062 7.30754 7.30754C7.11062 7.50445 7 7.77152 7 8.05C7 8.32848 7.11062 8.59555 7.30754 8.79246C7.50445 8.98937 7.77152 9.1 8.05 9.1H18.55C18.8285 9.1 19.0955 8.98937 19.2925 8.79246C19.4894 8.59555 19.6 8.32848 19.6 8.05C19.6 7.77152 19.4894 7.50445 19.2925 7.30754C19.0955 7.11062 18.8285 7 18.55 7H8.05ZM7.7672 14.378C8.15483 13.828 8.66908 13.3794 9.26654 13.0699C9.86401 12.7605 10.5272 12.5993 11.2 12.6H23.8C24.4728 12.5998 25.1357 12.7611 25.7331 13.0706C26.3305 13.38 26.8448 13.8284 27.2328 14.378L17.5 20.4624L7.7672 14.3808V14.378ZM7.0196 16.3884C7.0056 16.5242 7 16.66 7 16.8V23.8C7 24.9139 7.4425 25.9822 8.23015 26.7698C9.0178 27.5575 10.0861 28 11.2 28H23.8C24.9139 28 25.9822 27.5575 26.7698 26.7698C27.5575 25.9822 28 24.9139 28 23.8V16.8C28 16.66 27.993 16.5242 27.9804 16.3884L18.0572 22.5904C17.8902 22.695 17.6971 22.7504 17.5 22.7504C17.3029 22.7504 17.1098 22.695 16.9428 22.5904L7.0196 16.3884Z" fill="white"/>
</svg>
