<svg width="18" height="22" viewBox="0 0 18 22" fill="none" xmlns="http://www.w3.org/2000/svg">
<path d="M15 7.28571H17C17.2652 7.28571 17.5196 7.39537 17.7071 7.59056C17.8946 7.78575 18 8.05049 18 8.32653V20.8163C18 21.0924 17.8946 21.3571 17.7071 21.5523C17.5196 21.7475 17.2652 21.8571 17 21.8571H1C0.734784 21.8571 0.48043 21.7475 0.292893 21.5523C0.105357 21.3571 0 21.0924 0 20.8163V8.32653C0 8.05049 0.105357 7.78575 0.292893 7.59056C0.48043 7.39537 0.734784 7.28571 1 7.28571H3V6.2449C3 4.58865 3.63214 3.00023 4.75736 1.82909C5.88258 0.657943 7.4087 0 9 0C10.5913 0 12.1174 0.657943 13.2426 1.82909C14.3679 3.00023 15 4.58865 15 6.2449V7.28571ZM13 7.28571V6.2449C13 5.14073 12.5786 4.08179 11.8284 3.30102C11.0783 2.52026 10.0609 2.08163 9 2.08163C7.93913 2.08163 6.92172 2.52026 6.17157 3.30102C5.42143 4.08179 5 5.14073 5 6.2449V7.28571H13ZM8 13.5306V15.6122H10V13.5306H8ZM4 13.5306V15.6122H6V13.5306H4ZM12 13.5306V15.6122H14V13.5306H12Z" fill="white"/>
</svg>
