<svg width="22" height="26" viewBox="0 0 22 26" fill="none" xmlns="http://www.w3.org/2000/svg">
<g filter="url(#filter0_d_148_1852)">
<path d="M17 7.28571H19C19.2652 7.28571 19.5196 7.39537 19.7071 7.59056C19.8946 7.78575 20 8.05049 20 8.32653V20.8163C20 21.0924 19.8946 21.3571 19.7071 21.5523C19.5196 21.7475 19.2652 21.8571 19 21.8571H3C2.73478 21.8571 2.48043 21.7475 2.29289 21.5523C2.10536 21.3571 2 21.0924 2 20.8163V8.32653C2 8.05049 2.10536 7.78575 2.29289 7.59056C2.48043 7.39537 2.73478 7.28571 3 7.28571H5V6.2449C5 4.58865 5.63214 3.00023 6.75736 1.82909C7.88258 0.657943 9.4087 0 11 0C12.5913 0 14.1174 0.657943 15.2426 1.82909C16.3679 3.00023 17 4.58865 17 6.2449V7.28571ZM15 7.28571V6.2449C15 5.14073 14.5786 4.08179 13.8284 3.30102C13.0783 2.52026 12.0609 2.08163 11 2.08163C9.93913 2.08163 8.92172 2.52026 8.17157 3.30102C7.42143 4.08179 7 5.14073 7 6.2449V7.28571H15ZM10 13.5306V15.6122H12V13.5306H10ZM6 13.5306V15.6122H8V13.5306H6ZM14 13.5306V15.6122H16V13.5306H14Z" fill="white"/>
</g>
<defs>
<filter id="filter0_d_148_1852" x="0" y="0" width="22" height="25.8569" filterUnits="userSpaceOnUse" color-interpolation-filters="sRGB">
<feFlood flood-opacity="0" result="BackgroundImageFix"/>
<feColorMatrix in="SourceAlpha" type="matrix" values="0 0 0 0 0 0 0 0 0 0 0 0 0 0 0 0 0 0 127 0" result="hardAlpha"/>
<feOffset dy="2"/>
<feGaussianBlur stdDeviation="1"/>
<feComposite in2="hardAlpha" operator="out"/>
<feColorMatrix type="matrix" values="0 0 0 0 0 0 0 0 0 0 0 0 0 0 0 0 0 0 0.25 0"/>
<feBlend mode="normal" in2="BackgroundImageFix" result="effect1_dropShadow_148_1852"/>
<feBlend mode="normal" in="SourceGraphic" in2="effect1_dropShadow_148_1852" result="shape"/>
</filter>
</defs>
</svg>
