<svg width="30" height="30" viewBox="0 0 30 30" fill="none" xmlns="http://www.w3.org/2000/svg">
<path d="M26.8425 14.209H30.0004C30.0004 6.10895 23.8851 0 15.7741 0V3.1579C22.1877 3.1579 26.8425 7.80474 26.8425 14.209Z" fill="white"/>
<path d="M15.7899 9.47368C19.1105 9.47368 20.5268 10.89 20.5268 14.2105H23.6847C23.6847 9.11842 20.882 6.31578 15.7899 6.31578V9.47368ZM21.1931 18.0679C20.8897 17.7921 20.491 17.6451 20.0812 17.6577C19.6714 17.6704 19.2826 17.8418 18.9968 18.1358L15.2183 22.0216C14.3089 21.8479 12.4804 21.2779 10.5983 19.4005C8.71624 17.5168 8.14624 15.6837 7.97729 14.7805L11.8599 11.0005C12.1543 10.7149 12.3259 10.326 12.3386 9.91611C12.3513 9.50619 12.204 9.10743 11.9278 8.80421L6.09361 2.38894C5.81736 2.08477 5.43341 1.90026 5.02332 1.87461C4.61323 1.84896 4.20929 1.98419 3.89729 2.25157L0.470972 5.18999C0.197989 5.46397 0.035055 5.8286 0.0130768 6.21473C-0.0106074 6.60947 -0.462186 15.96 6.78834 23.2137C13.1136 29.5374 21.0368 30 23.2189 30C23.5378 30 23.7336 29.9905 23.7857 29.9874C24.1718 29.9658 24.5362 29.8021 24.8089 29.5279L27.7457 26.1C28.0133 25.7882 28.1488 25.3844 28.1234 24.9743C28.0981 24.5642 27.9139 24.1801 27.6099 23.9037L21.1931 18.0679Z" fill="white"/>
</svg>
