<svg width="139" height="139" viewBox="-2 -2 143 143" stroke="#FF9000" stroke-width="2" xmlns="http://www.w3.org/2000/svg">
<path d="M69.5 0C31.8241 0 0 31.8241 0 69.5C0 107.176 31.8241 139 69.5 139C107.176 139 139 107.176 139 69.5C139 31.8241 107.176 0 69.5 0ZM69.5 34.75C81.5026 34.75 90.35 43.5904 90.35 55.6C90.35 67.6096 81.5026 76.45 69.5 76.45C57.5043 76.45 48.65 67.6096 48.65 55.6C48.65 43.5904 57.5043 34.75 69.5 34.75ZM34.0133 102.665C40.2475 93.4914 50.6446 87.3754 62.55 87.3754H76.45C88.3623 87.3754 98.7526 93.4914 104.987 102.665C96.1046 112.173 83.5043 118.15 69.5 118.15C55.4957 118.15 42.8954 112.173 34.0133 102.665Z" fill="#303636"/>
</svg>
