<svg width="39" height="30" viewBox="0 0 39 30" fill="none" xmlns="http://www.w3.org/2000/svg">
<path d="M18.7232 8.59821C18.9107 8.57812 19.0982 8.57143 19.2857 8.57143C22.8348 8.57143 25.7143 11.3906 25.7143 15C25.7143 18.5491 22.8348 21.4286 19.2857 21.4286C15.6763 21.4286 12.8571 18.5491 12.8571 15C12.8571 14.8125 12.8638 14.625 12.8839 14.4375C13.5067 14.7388 14.2299 15 15 15C17.3638 15 19.2857 13.0781 19.2857 10.7143C19.2857 9.9442 19.0246 9.22098 18.7232 8.59821ZM32.183 5.39732C35.317 8.30357 37.413 11.7254 38.404 14.1763C38.625 14.7054 38.625 15.2946 38.404 15.8237C37.413 18.2143 35.317 21.6362 32.183 24.6027C29.029 27.5357 24.6964 30 19.2857 30C13.875 30 9.54242 27.5357 6.38974 24.6027C3.25581 21.6362 1.16117 18.2143 0.164805 15.8237C0.0560131 15.5627 0 15.2827 0 15C0 14.7173 0.0560131 14.4373 0.164805 14.1763C1.16117 11.7254 3.25581 8.30357 6.38974 5.39732C9.54242 2.46696 13.875 0 19.2857 0C24.6964 0 29.029 2.46696 32.183 5.39732ZM19.2857 5.35714C13.9621 5.35714 9.64286 9.67634 9.64286 15C9.64286 20.3237 13.9621 24.6429 19.2857 24.6429C24.6094 24.6429 28.9286 20.3237 28.9286 15C28.9286 9.67634 24.6094 5.35714 19.2857 5.35714Z" fill="white"/>
</svg>
